<?xml version="1.0" standalone="no"?>
<!DOCTYPE svg PUBLIC "-//W3C//DTD SVG 20010904//EN"
 "http://www.w3.org/TR/2001/REC-SVG-20010904/DTD/svg10.dtd">
<svg version="1.0" xmlns="http://www.w3.org/2000/svg"
 width="1280.000000pt" height="640.000000pt" viewBox="0 0 1280.000000 640.000000"
 preserveAspectRatio="xMidYMid meet">
<metadata>
Created by potrace 1.15, written by Peter Selinger 2001-2017
</metadata>
<g transform="translate(0.000000,640.000000) scale(0.100000,-0.100000)"
fill="#000000" stroke="none">
<path d="M1690 5982 c-55 -18 -233 -104 -258 -125 -23 -18 -49 -79 -66 -154
-25 -110 -21 -161 18 -263 19 -49 38 -106 42 -125 3 -20 17 -49 31 -65 23 -28
23 -30 8 -61 -25 -47 -95 -111 -173 -157 -108 -64 -135 -101 -192 -257 -18
-49 -50 -122 -71 -160 -21 -39 -45 -100 -53 -136 -13 -53 -36 -316 -36 -406 0
-24 145 -200 219 -265 38 -34 41 -40 41 -87 0 -28 -11 -104 -25 -168 -51 -235
-45 -312 36 -503 53 -123 59 -168 48 -385 -5 -99 -11 -477 -13 -840 -3 -698
-5 -726 -55 -969 -29 -137 -28 -178 7 -216 26 -30 32 -31 147 -41 66 -5 156
-19 200 -31 118 -30 222 -35 269 -13 38 18 66 58 66 95 0 11 20 40 45 64 25
25 45 51 45 60 0 34 -195 213 -257 237 -26 10 -26 11 -23 189 2 146 -18 121
-31 -39 -5 -67 -17 -140 -25 -162 -29 -72 -85 -95 -163 -68 -39 14 -51 40 -40
89 17 78 79 454 79 482 0 19 -4 28 -12 26 -14 -5 -33 -81 -93 -368 -20 -96
-41 -179 -46 -185 -15 -16 -41 7 -57 51 -19 52 -10 250 17 404 38 211 65 306
148 525 8 22 19 81 23 131 10 102 22 142 46 151 24 9 14 65 -42 236 -65 199
-146 397 -204 499 -28 49 -50 92 -50 97 0 5 22 29 49 53 27 24 54 56 60 71 14
36 14 277 1 312 -6 16 -25 32 -53 44 -63 27 -69 37 -52 100 7 29 16 55 18 57
6 6 143 -87 192 -131 l40 -35 -24 -20 c-13 -11 -29 -20 -37 -20 -42 0 -44 -88
-3 -239 35 -133 57 -184 82 -189 22 -5 22 19 -2 66 -23 46 -61 194 -61 239 0
32 49 103 71 103 6 0 41 -29 79 -65 38 -36 74 -65 79 -65 11 0 26 -43 41 -125
6 -33 40 -145 75 -250 68 -203 81 -268 111 -567 21 -209 16 -248 -64 -505
-125 -397 -156 -513 -144 -525 15 -15 43 48 102 225 23 71 48 131 56 134 26
10 376 -71 537 -124 90 -30 108 -49 152 -168 32 -85 46 -102 110 -130 174 -77
390 -83 591 -15 95 32 136 37 152 18 6 -7 18 -42 27 -78 38 -151 165 -356 282
-458 73 -63 170 -116 248 -136 86 -22 292 -39 405 -34 117 6 180 28 298 108
85 57 222 185 263 245 86 127 137 303 148 507 4 70 9 129 12 132 3 3 48 -10
100 -30 125 -46 187 -53 489 -54 354 0 1101 18 1240 30 63 6 212 17 330 25
118 8 226 17 240 20 24 5 483 42 1035 85 244 19 514 46 745 75 63 8 234 24
379 35 144 12 297 25 339 30 41 6 77 8 79 6 2 -2 0 -35 -5 -73 -16 -133 16
-324 75 -455 56 -126 180 -252 308 -313 39 -18 129 -48 200 -66 267 -67 465
-38 644 97 94 70 204 217 247 329 17 44 19 77 19 290 0 228 -1 242 -22 289
-40 86 -29 96 75 71 72 -18 153 -15 667 26 211 16 243 29 334 134 50 57 110
112 159 145 l23 15 9 532 c6 339 6 550 0 582 -17 92 -48 132 -115 149 -62 16
-307 30 -815 47 -887 29 -2560 101 -2690 116 -52 6 -100 16 -106 22 -17 18
-132 379 -264 827 -100 340 -119 395 -142 417 -55 50 -131 74 -323 103 -200
29 -495 40 -1095 42 -521 1 -743 -8 -980 -37 -63 -8 -209 -26 -325 -40 -421
-52 -457 -60 -540 -123 -27 -20 -86 -85 -129 -142 -43 -58 -87 -106 -96 -108
-20 -3 -163 104 -317 238 -190 166 -795 651 -925 742 -110 78 -306 150 -516
190 -106 21 -147 23 -437 23 -263 -1 -337 -4 -412 -18 -183 -35 -285 -80 -332
-146 -37 -51 -24 -63 58 -55 108 10 55 52 750 -590 160 -149 291 -275 291
-280 0 -17 -138 -632 -163 -725 -20 -79 -24 -85 -52 -92 -16 -5 -151 -17 -300
-28 -359 -28 -528 -58 -713 -127 -130 -48 -125 -49 -117 44 8 87 33 268 41
295 7 23 58 22 153 -3 90 -24 94 -24 138 -3 47 22 92 85 214 298 151 265 241
398 278 410 12 4 40 -6 74 -25 62 -35 92 -38 106 -11 17 31 -20 65 -106 100
-43 18 -94 44 -114 59 -20 15 -55 41 -78 59 -31 23 -58 34 -99 39 -73 9 -190
50 -370 130 -163 73 -202 85 -202 60 0 -15 85 -60 363 -189 53 -25 100 -53
103 -61 3 -9 -4 -28 -16 -43 -19 -25 -21 -35 -15 -128 6 -86 4 -104 -12 -131
-31 -55 -120 -144 -143 -144 -5 0 -22 30 -39 67 -43 91 -216 348 -271 403 -25
25 -61 54 -80 65 -48 28 -51 66 -10 153 41 85 70 169 70 198 0 13 6 26 13 31
6 4 66 10 132 13 l120 5 3 28 c4 34 -32 70 -115 114 -82 44 -99 66 -107 138
-10 88 -33 125 -98 158 -72 37 -153 44 -228 19z m174 -40 c5 -8 -5 -26 -48
-87 -11 -15 -28 -51 -37 -79 -21 -64 -43 -76 -136 -76 -65 0 -73 2 -84 23 -6
12 -31 43 -56 68 l-44 46 94 36 c161 62 297 92 311 69z m96 -82 c6 -10 13 -39
16 -63 9 -62 -11 -79 -85 -75 -45 2 -56 7 -59 21 -7 33 8 66 43 102 40 39 69
45 85 15z m1347 -16 c54 -6 76 -30 36 -38 -55 -11 -143 -17 -448 -31 -170 -8
-361 -18 -424 -22 -85 -4 -112 -3 -107 5 36 59 683 118 943 86z m233 -83 c0
-36 -31 -198 -86 -446 -69 -314 -93 -405 -108 -405 -39 0 -211 145 -571 481
-239 224 -301 286 -293 294 15 15 155 25 418 30 324 7 439 17 525 44 81 26
115 26 115 2z m-2050 -16 c15 -18 9 -49 -10 -53 -27 -5 -53 22 -46 46 8 25 38
29 56 7z m2212 -16 c197 -66 315 -153 1133 -836 617 -515 1192 -1049 1155
-1073 -22 -14 -126 -12 -270 5 -202 23 -1400 212 -1460 230 -67 21 -128 69
-350 277 -256 240 -465 449 -494 494 l-27 41 30 114 c27 106 65 272 125 544
30 135 62 225 82 225 8 0 42 -9 76 -21z m-1637 -94 c91 -30 148 -62 139 -77
-20 -31 -374 56 -374 92 0 28 131 20 235 -15z m-410 -23 c-6 -5 -31 -16 -56
-26 -57 -20 -125 -77 -133 -111 -10 -38 -21 -31 -50 35 -30 66 -25 95 16 103
43 8 232 7 223 -1z m170 -28 c68 -32 95 -65 95 -116 0 -33 -5 -42 -30 -56 -25
-14 -30 -23 -30 -55 0 -33 -4 -39 -36 -54 -30 -15 -35 -21 -32 -48 l3 -30 -69
4 c-53 2 -67 0 -64 -10 5 -15 18 -23 71 -44 38 -14 39 -16 32 -54 -9 -54 11
-64 45 -22 31 37 53 34 75 -10 14 -26 13 -29 -11 -48 -50 -39 -65 -33 -204 85
-129 108 -124 100 -121 203 1 69 -2 91 -14 101 -20 17 -19 53 3 73 9 8 35 20
57 26 22 6 65 26 95 45 30 20 61 36 68 36 7 0 38 -12 67 -26z m-315 -214 c0
-33 -9 -43 -27 -29 -13 12 -18 61 -6 72 12 12 33 -15 33 -43z m86 -267 c56
-56 64 -73 40 -93 -31 -25 -127 47 -142 106 -17 69 26 63 102 -13z m6539 -27
c367 -31 468 -60 511 -146 19 -39 123 -383 321 -1065 l58 -200 -1 -480 c0
-446 -16 -898 -33 -962 -6 -22 -14 -29 -38 -31 -27 -3 -32 1 -42 29 -14 40
-14 263 -1 554 32 691 36 827 29 895 -4 41 -33 163 -64 270 -31 107 -94 332
-141 500 -141 507 -140 507 -264 533 -227 48 -401 62 -770 62 -340 0 -403 -6
-529 -47 -96 -31 -156 -95 -276 -298 -55 -91 -131 -215 -171 -277 -40 -62
-101 -161 -135 -220 -34 -59 -102 -170 -151 -246 -49 -76 -101 -162 -114 -192
-43 -93 -52 -185 -69 -660 -19 -562 -33 -882 -41 -961 l-6 -61 -70 -7 c-172
-16 -952 -56 -958 -49 -3 5 -30 67 -59 138 -119 292 -237 449 -363 486 -165
48 -920 16 -1085 -46 -80 -30 -184 -99 -239 -157 -50 -52 -83 -107 -253 -406
-198 -350 -215 -372 -291 -372 l-30 0 0 255 0 254 -37 11 c-21 6 -195 42 -388
81 -442 88 -491 102 -478 135 6 17 -1 18 163 -15 58 -12 178 -33 267 -46 256
-39 344 -31 377 34 20 38 20 126 1 207 -20 86 -35 287 -35 478 -1 147 -4 195
-26 338 l-7 48 65 63 c70 69 120 98 213 122 63 16 249 39 400 49 214 15 1444
57 1935 66 577 11 690 19 744 51 19 11 61 23 93 26 47 4 65 12 92 37 35 33
513 744 612 910 33 55 59 110 59 122 0 30 -43 59 -109 73 -89 19 -433 24 -786
12 -330 -11 -443 -24 -504 -55 -17 -9 -63 -62 -111 -129 -95 -134 -135 -176
-151 -160 -6 6 -9 22 -6 35 9 34 82 141 138 202 58 63 102 81 294 120 291 59
532 84 1060 110 39 2 327 2 640 0 410 -2 623 -7 760 -18z m-6594 -96 l63 -70
52 51 c74 73 104 54 124 -78 12 -77 10 -346 -2 -359 -4 -4 -15 -1 -23 6 -12
10 -19 10 -27 2 -13 -13 -3 -39 34 -85 22 -28 23 -35 22 -220 -3 -440 -46
-486 -297 -320 -165 109 -224 183 -202 255 4 12 27 57 51 98 73 128 124 330
124 494 0 74 -13 106 -59 150 -39 37 -50 28 -22 -18 72 -117 11 -546 -78 -546
-27 0 -153 46 -225 82 -55 28 -58 31 -52 59 6 33 125 300 164 369 41 74 72
100 176 151 55 27 103 49 107 49 4 0 36 -32 70 -70z m1141 53 c9 -10 23 -33
32 -51 21 -40 18 -117 -3 -117 -13 0 -23 27 -58 163 -6 26 8 29 29 5z m-639
-85 c77 -109 177 -325 177 -383 0 -26 -117 -143 -129 -129 -9 10 -75 297 -96
419 -17 94 -19 155 -6 155 6 0 30 -28 54 -62z m5757 42 c11 -7 -3 -10 -45 -10
-42 0 -56 3 -45 10 8 5 29 10 45 10 17 0 37 -5 45 -10z m-5872 -12 c5 -7 13
-56 17 -108 4 -52 20 -145 36 -207 34 -130 39 -276 15 -404 -8 -41 -26 -152
-40 -246 -13 -95 -30 -181 -35 -192 -6 -11 -29 -26 -51 -32 -63 -19 -65 -12
-52 138 7 70 16 183 20 250 7 96 13 127 26 142 16 18 17 26 7 68 -18 76 -30
236 -31 396 l0 149 29 29 c32 32 44 35 59 17z m693 -9 c6 -12 12 -54 12 -93 1
-117 -43 -229 -184 -462 -97 -161 -107 -174 -146 -191 -44 -18 -128 -3 -198
35 -64 36 -75 54 -50 83 45 50 203 137 225 124 9 -6 36 22 115 120 31 39 74
92 96 118 43 54 45 64 27 168 l-12 71 27 24 c35 30 72 31 88 3z m5542 -6 c-13
-2 -33 -2 -45 0 -13 2 -3 4 22 4 25 0 35 -2 23 -4z m239 -24 c29 -6 70 -20 90
-30 67 -34 86 -88 269 -734 l121 -430 -6 -400 c-7 -409 -21 -870 -32 -1051
l-6 -101 -72 -7 c-39 -3 -285 -17 -546 -31 -746 -40 -781 -42 -798 -59 -13
-13 -12 -16 12 -22 14 -3 171 1 349 10 482 24 990 40 1020 32 38 -9 33 -24
-10 -35 -70 -17 -669 -55 -1698 -106 -275 -13 -552 -30 -616 -36 -126 -12
-152 -7 -164 32 -12 37 -19 36 400 59 366 21 491 39 374 54 -30 4 -224 4 -431
0 l-378 -7 0 139 c1 149 15 751 26 1082 l7 203 61 -60 c57 -57 115 -91 152
-91 8 0 50 -14 92 -31 59 -24 94 -31 149 -33 66 -1 74 1 102 28 34 32 144 194
185 271 14 27 26 66 26 86 0 29 5 38 23 43 12 4 281 11 597 16 608 10 755 18
796 45 44 28 64 74 64 143 0 69 -42 365 -96 667 -54 308 -43 281 -138 325
l-81 38 52 1 c29 1 76 -4 105 -10z m-1862 -19 c97 -22 130 -52 74 -66 -61 -15
-375 23 -401 49 -33 34 201 45 327 17z m-540 1 c0 -12 -29 -35 -36 -28 -11 10
5 37 21 37 8 0 15 -4 15 -9z m1084 -108 c-193 -308 -480 -733 -496 -733 -10 0
22 57 100 179 30 47 99 159 155 250 55 91 126 204 158 251 59 86 137 175 146
166 3 -2 -26 -53 -63 -113z m-971 96 c27 -14 77 -60 77 -71 0 -15 -95 -9 -118
8 -26 18 -28 37 -6 58 18 19 19 19 47 5z m-238 -9 c40 -15 25 -32 -38 -45 -67
-13 -105 -38 -131 -87 -19 -33 -19 -37 -4 -60 11 -17 29 -27 55 -31 98 -16
281 -29 354 -25 74 3 83 6 105 31 18 21 24 40 24 75 0 77 2 78 122 57 56 -9
141 -19 188 -22 l85 -5 47 51 c53 56 112 80 148 61 11 -6 20 -13 20 -16 0 -23
-330 -529 -383 -585 -16 -18 -53 -36 -113 -54 -49 -15 -141 -51 -204 -81 -63
-30 -134 -59 -156 -64 -88 -20 -174 28 -404 225 -135 115 -270 244 -270 258 0
32 180 261 223 284 68 36 271 56 332 33z m2284 -14 c145 -19 170 -29 194 -77
34 -71 108 -483 111 -621 1 -71 -1 -80 -25 -103 -42 -42 -264 -94 -405 -95
l-82 0 -18 66 c-9 36 -26 76 -36 90 -30 37 -115 57 -238 56 -137 0 -242 -22
-348 -71 -93 -43 -107 -43 -140 6 -25 39 -24 322 1 443 45 214 96 291 212 321
51 14 637 2 774 -15z m-988 -140 c-41 -115 -61 -227 -68 -376 -7 -142 7 -248
38 -291 14 -21 17 -33 10 -51 -13 -35 -170 -233 -184 -233 -14 0 -45 113 -46
168 -1 25 9 55 27 85 27 47 27 48 32 283 l5 235 84 120 c136 194 153 203 102
60z m-1003 28 c26 -5 29 -35 6 -58 -18 -18 -56 -20 -199 -6 -152 15 -223 35
-200 58 16 17 318 21 393 6z m-2736 -49 c20 -14 39 -33 42 -43 8 -25 268 -267
536 -498 137 -119 139 -121 103 -128 -43 -8 -252 -24 -528 -41 -137 -8 -278
-18 -312 -21 -63 -6 -63 -5 -63 20 0 41 151 704 166 728 8 12 17 10 56 -17z
m3497 -471 c1 -135 -1 -153 -18 -168 -14 -12 -24 -14 -42 -7 -25 9 -119 99
-119 113 0 4 37 64 83 132 69 105 83 121 89 103 3 -12 6 -90 7 -173z m-5771
70 c39 -14 79 -34 89 -44 19 -18 20 -19 2 -86 -33 -128 -30 -135 126 -260 61
-48 160 -132 221 -186 62 -54 152 -129 200 -166 69 -52 90 -73 92 -95 3 -25
-2 -30 -53 -52 -35 -16 -74 -25 -105 -25 -50 0 -51 1 -158 103 -59 56 -166
150 -237 209 -148 120 -279 252 -320 322 -26 44 -27 52 -23 140 3 79 8 99 28
130 30 43 46 45 138 10z m5227 -153 c-12 -11 -207 -72 -213 -66 -5 4 47 33
103 57 42 18 126 25 110 9z m1260 -21 c3 -5 -2 -24 -11 -41 -28 -54 -166 -283
-182 -301 -13 -16 -37 -18 -204 -18 -173 0 -188 1 -188 18 0 37 145 184 240
244 116 73 324 132 345 98z m227 -55 c11 -37 0 -243 -15 -270 -5 -11 -15 -23
-21 -27 -33 -22 -260 -20 -296 2 -37 23 141 297 210 323 8 3 37 5 64 4 46 -2
50 -4 58 -32z m-1095 -7 c49 -51 96 -159 97 -226 1 -74 -20 -77 -45 -6 -20 60
-37 88 -96 162 -46 57 -50 71 -31 90 20 20 42 14 75 -20z m-489 -70 c-47 -88
-142 -162 -163 -128 -11 18 147 170 177 170 5 0 -1 -19 -14 -42z m260 -38
c-19 -53 -19 -66 -9 -102 15 -48 56 -91 125 -131 l49 -28 -24 -25 c-38 -41
-56 -47 -83 -29 -13 9 -47 18 -75 22 -75 9 -127 -15 -175 -77 -21 -28 -40 -49
-42 -47 -11 11 34 135 78 212 50 89 165 265 172 265 2 0 -5 -27 -16 -60z
m1942 45 c7 -9 15 -48 18 -88 4 -66 2 -76 -19 -100 -32 -36 -80 -44 -357 -53
l-222 -7 0 49 c0 27 6 60 13 74 12 23 20 26 132 37 212 22 370 58 395 89 16
18 24 18 40 -1z m-1776 -67 c45 -52 63 -106 47 -137 -16 -29 -48 -27 -103 8
-84 54 -101 110 -48 162 35 36 49 31 104 -33z m-2209 -2 c61 -8 142 -21 180
-30 66 -14 457 -77 574 -92 32 -4 48 -10 40 -14 -30 -16 -934 -57 -1913 -86
l-229 -7 6 76 c6 91 17 112 59 126 28 8 242 23 663 45 139 7 512 -4 620 -18z
m-1379 -51 c18 -45 -36 -145 -77 -145 -11 0 -36 -8 -57 -19 -53 -26 -154 -32
-351 -21 -181 10 -234 23 -246 59 -8 28 -1 37 45 61 57 29 122 41 335 60 254
23 344 25 351 5z m-798 -116 c5 -36 49 -77 101 -93 65 -21 209 -44 328 -52
l102 -7 -61 -39 c-34 -22 -85 -64 -113 -94 -54 -56 -84 -66 -126 -44 -11 6
-126 22 -257 35 -316 33 -311 32 -323 62 -12 33 -12 130 1 154 13 23 63 49
151 78 134 44 191 44 197 0z m-481 -81 c39 -16 74 -36 77 -44 10 -25 7 -49 -7
-69 -13 -17 -16 -17 -64 9 -59 32 -143 110 -143 132 0 20 40 12 137 -28z
m5046 -19 c51 -27 49 -64 -9 -163 -45 -77 -47 -85 -29 -143 6 -19 3 -23 -13
-23 -11 0 -26 10 -35 23 l-15 22 -22 -27 c-29 -38 -64 -36 -105 5 -22 22 -35
46 -40 77 -4 25 -12 53 -17 63 -14 27 11 59 82 107 101 69 155 84 203 59z
m135 -27 c4 -26 -25 -85 -38 -77 -23 14 -1 110 23 103 6 -3 13 -14 15 -26z
m2747 -12 c281 -11 620 -24 755 -30 499 -21 1223 -50 1500 -60 318 -12 587
-27 640 -37 l35 -7 -30 -7 c-46 -10 -503 -10 -870 1 -616 19 -1550 49 -1655
55 -58 3 -267 12 -465 20 -488 21 -595 32 -595 65 0 21 38 31 105 25 39 -2
300 -14 580 -25z m-3283 -58 c-3 -36 1 -43 33 -68 71 -54 67 -94 -9 -94 -71 0
-135 54 -122 104 7 29 76 108 90 103 6 -2 10 -21 8 -45z m3078 -57 c516 -15
1545 -50 1895 -66 132 -5 461 -14 730 -18 339 -6 499 -12 520 -21 l30 -12 -52
-46 c-92 -82 -104 -139 -110 -534 l-5 -307 61 -7 c33 -3 68 -12 77 -19 22 -15
24 -100 3 -120 -15 -14 -177 -25 -654 -45 -137 -5 -294 -12 -347 -15 -54 -3
-98 -5 -98 -3 -8 64 -34 169 -50 203 -44 91 -144 153 -287 175 -149 24 -483
11 -643 -26 -151 -34 -234 -109 -331 -296 -28 -55 -59 -103 -72 -109 -21 -12
-813 -55 -1072 -60 l-110 -1 3 123 c2 68 7 297 12 509 6 212 10 459 10 549 l0
163 153 -6 c83 -3 235 -8 337 -11z m-8285 -70 c16 -32 20 -60 20 -148 0 -107
-1 -109 -28 -133 -33 -29 -40 -29 -63 -7 -15 15 -16 34 -11 154 3 75 10 146
17 158 16 32 42 22 65 -24z m928 -14 c100 -11 222 -22 271 -26 141 -10 164
-31 186 -168 13 -84 52 -844 45 -868 -4 -11 -18 -22 -32 -25 -91 -23 -581 57
-701 114 l-36 17 -12 97 c-7 53 -26 148 -43 212 -17 63 -31 123 -31 132 0 9
18 36 39 59 25 28 42 57 47 82 10 54 20 63 75 63 56 0 69 15 69 78 0 64 -26
130 -75 193 l-46 59 31 0 c17 0 113 -9 213 -19z m-203 -96 c13 -21 24 -59 27
-95 7 -70 -6 -82 -58 -55 -31 17 -69 16 -126 -1 -20 -6 -23 -3 -23 25 0 42 52
154 80 174 20 14 26 14 51 2 15 -8 37 -30 49 -50z m-195 -17 c-12 -55 -24 -78
-39 -78 -35 0 -26 77 11 99 29 17 35 13 28 -21z m10936 -20 c1 -7 0 -17 -1
-23 -1 -5 -6 -120 -10 -255 -5 -135 -12 -253 -15 -263 -6 -14 -16 -17 -44 -15
l-36 3 1 220 c0 231 8 289 45 326 21 21 58 26 60 7z m-10843 -205 c4 -26 -23
-82 -44 -90 -22 -8 -44 16 -44 47 0 19 9 36 27 50 32 25 57 23 61 -7z m-517
-453 c15 -44 40 -125 55 -182 22 -87 26 -115 20 -184 -13 -172 -58 -368 -118
-511 -56 -137 -61 -106 -53 367 7 398 17 566 36 602 11 20 12 20 21 4 6 -10
23 -53 39 -96z m11323 44 c24 -9 21 -75 -5 -108 -24 -31 -64 -34 -79 -7 -19
36 -12 78 16 100 28 22 42 25 68 15z m-1375 -74 c95 -26 157 -67 184 -122 20
-41 45 -211 49 -343 l3 -90 -27 -3 c-34 -4 -97 28 -176 90 -71 57 -120 114
-152 178 -32 63 -69 109 -114 142 -44 32 -56 35 -56 14 0 -8 24 -36 54 -62 58
-49 92 -102 76 -118 -6 -6 -38 -1 -82 12 -40 11 -141 35 -225 53 l-152 33 -78
-18 c-103 -24 -190 -60 -263 -107 -33 -21 -60 -37 -60 -35 0 1 9 29 20 61 55
160 173 265 346 310 111 28 177 34 374 31 168 -2 207 -6 279 -26z m-6566 -48
c100 -42 210 -188 288 -385 66 -163 158 -529 139 -552 -38 -45 -119 53 -230
279 -107 219 -159 293 -243 347 -100 65 -257 139 -321 150 -78 14 -301 8 -317
-8 -7 -7 -10 -16 -6 -19 4 -4 78 -11 164 -16 182 -10 243 -26 373 -95 186
-100 185 -119 -2 -34 -74 33 -157 65 -186 71 -31 7 -128 10 -245 8 l-194 -3
-84 -43 c-223 -113 -384 -300 -459 -534 -17 -53 -37 -101 -44 -107 -15 -13
-386 -28 -386 -16 0 16 233 450 294 548 82 132 174 246 244 301 88 71 184 95
462 116 170 12 718 7 753 -8z m5977 -242 c17 -12 18 -11 -65 -60 -162 -95
-309 -283 -349 -446 -20 -82 -29 -291 -17 -399 13 -120 71 -246 162 -351 40
-46 43 -64 10 -64 -26 0 -186 116 -233 170 -53 58 -114 186 -133 275 -8 39
-15 120 -15 181 0 107 1 112 38 190 21 43 56 124 77 179 32 84 46 108 90 151
114 113 372 215 435 174z m1893 -27 c-13 -2 -33 -2 -45 0 -13 2 -3 4 22 4 25
0 35 -2 23 -4z m-244 -17 c-8 -8 -539 -57 -638 -59 -98 -2 -132 6 -112 26 10
10 123 15 710 35 24 1 42 0 40 -2z m-10194 -41 c72 -14 195 -36 275 -50 186
-33 240 -45 240 -55 0 -36 -132 -28 -403 25 -290 57 -337 71 -321 96 9 15 72
10 209 -16z m1849 -24 c-87 -61 -211 -191 -270 -282 -104 -161 -138 -285 -137
-509 0 -167 12 -244 58 -366 33 -87 54 -120 166 -249 50 -58 88 -109 85 -112
-4 -4 -40 9 -81 30 -127 62 -287 234 -355 379 -83 178 -76 497 16 705 86 197
295 380 494 434 97 27 99 23 24 -30z m7016 38 c103 -16 145 -41 239 -137 90
-92 137 -161 177 -262 119 -294 -29 -708 -309 -869 -60 -34 -189 -71 -246 -71
-20 0 -67 7 -106 15 -210 44 -372 195 -451 420 -26 75 -31 282 -10 379 66 294
253 494 491 526 88 11 142 11 215 -1z m-6528 -43 c90 -32 145 -65 219 -134
163 -151 245 -338 256 -582 9 -201 -33 -358 -138 -515 -57 -85 -172 -196 -251
-243 -322 -191 -683 -64 -863 303 -68 139 -78 196 -73 415 4 175 6 190 35 272
59 169 191 343 321 422 67 41 151 73 222 87 70 12 197 1 272 -25z m8039 -15
c-13 -24 -74 -77 -110 -96 -39 -20 -128 -32 -371 -50 -287 -21 -423 -23 -443
-6 -24 20 -40 83 -24 98 6 6 57 17 112 23 169 19 583 47 718 49 122 1 127 0
118 -18z m-2386 -21 c19 -7 18 -8 -5 -13 -54 -12 -104 -17 -360 -37 -146 -11
-287 -22 -315 -25 -88 -10 -396 -23 -416 -18 -15 4 -28 40 -16 44 6 2 989 57
1037 57 30 0 64 -3 75 -8z m-7965 -50 c313 -61 461 -70 562 -34 l41 14 -7
-123 c-7 -139 -22 -274 -37 -329 -23 -87 -143 -77 -570 48 -299 87 -329 103
-329 174 0 51 54 236 75 260 25 28 79 26 265 -10z m6757 -33 c-6 -19 -61 -15
-65 5 -2 9 4 18 15 20 24 6 55 -10 50 -25z m1208 -8 c8 -9 -70 -178 -94 -202
-19 -19 -37 -22 -168 -28 -82 -4 -285 -21 -452 -38 -167 -17 -314 -31 -327
-31 -24 0 -24 1 -24 103 0 67 4 109 13 119 9 13 51 20 202 33 525 45 833 61
850 44z m-1146 -85 c43 -55 39 -148 -10 -196 -37 -38 -78 -36 -97 5 -25 52 27
217 69 217 10 0 27 -12 38 -26z m-139 -11 c0 -30 -20 -146 -31 -180 -7 -23
-19 -35 -42 -42 -68 -21 -247 -41 -587 -66 -113 -9 -266 -22 -340 -30 -135
-15 -436 -39 -625 -50 -218 -13 -696 -46 -791 -55 -131 -12 -170 -2 -191 47
-12 31 -13 49 -3 115 18 126 23 135 78 142 87 10 196 16 607 36 226 11 597 31
825 44 228 14 521 30 650 36 129 6 251 12 270 14 19 1 68 3 108 4 63 2 72 0
72 -15z m-2701 -4 c17 -6 36 -20 41 -30 9 -15 6 -19 -12 -24 -110 -24 -1029
-48 -1042 -27 -22 37 52 48 489 71 407 23 483 24 524 10z m61 -111 c-1 -60
-31 -283 -40 -292 -15 -15 -479 -21 -682 -8 -185 12 -199 17 -277 118 -51 67
-64 107 -37 117 43 17 256 34 686 57 113 6 219 12 235 14 80 8 115 6 115 -6z
m-2886 -388 c-32 -90 -114 -148 -239 -171 -129 -24 -252 34 -300 142 -22 49
-11 65 51 75 69 10 499 20 502 11 2 -4 -4 -30 -14 -57z m-621 22 c22 -21 87
-156 87 -182 0 -5 -19 -10 -42 -10 -101 1 -151 29 -209 119 -31 48 -37 86 -16
95 6 3 44 4 84 3 59 -2 76 -6 96 -25z m-973 -618 c78 -60 134 -120 127 -137
-19 -51 -189 -4 -246 69 -27 34 -27 88 -1 114 24 24 35 20 120 -46z m-391 -18
l73 -31 -72 -3 c-84 -3 -120 13 -120 54 0 30 4 29 119 -20z m285 -139 c48 -32
90 -55 95 -53 12 8 48 -21 54 -44 3 -14 -2 -29 -14 -41 -25 -25 -97 -25 -215
1 -50 11 -148 26 -218 34 -156 19 -176 29 -176 90 0 71 11 75 231 73 l156 -2
87 -58z"/>
<path d="M1812 5537 c-10 -11 -9 -17 2 -26 21 -18 51 -9 51 14 0 24 -36 32
-53 12z"/>
<path d="M5380 2910 c-151 -4 -480 -13 -730 -19 -899 -22 -1228 -32 -1400 -41
-191 -11 -240 -18 -240 -31 0 -14 317 -11 1160 11 1646 43 1782 49 1742 74
-19 12 -249 14 -532 6z"/>
<path d="M8312 3560 c-42 -6 -65 -24 -59 -45 7 -22 60 -35 193 -45 76 -6 172
-17 213 -25 87 -18 113 -18 164 -4 42 11 49 37 21 78 -32 45 -68 51 -286 50
-112 -1 -223 -5 -246 -9z m463 -53 c10 -8 15 -19 11 -25 -7 -12 -76 15 -76 30
0 13 44 9 65 -5z"/>
<path d="M7461 2964 c-461 -12 -522 -17 -497 -41 12 -12 840 -8 1201 6 310 12
402 22 390 41 -8 13 -479 10 -1094 -6z"/>
<path d="M7222 2100 c-76 -18 -44 -43 48 -37 68 4 115 21 105 38 -7 11 -105
10 -153 -1z"/>
<path d="M12459 3106 c-5 -5 -527 -22 -1324 -41 -1038 -26 -1496 -42 -1508
-54 -6 -6 -7 -14 -3 -18 11 -11 284 -9 846 5 261 7 736 19 1055 27 811 21 995
33 995 64 0 14 -49 28 -61 17z"/>
<path d="M2344 3306 c-156 -70 -205 -340 -86 -465 85 -89 233 -78 281 21 62
129 45 315 -37 408 -31 35 -44 43 -82 46 -26 3 -58 -2 -76 -10z m110 -57 c39
-31 55 -69 67 -159 28 -204 -50 -307 -180 -240 -69 34 -118 117 -109 180 3 23
7 25 45 22 53 -3 62 12 29 47 -26 27 -34 51 -18 51 5 0 26 -13 48 -30 72 -55
91 -34 33 39 -22 28 -39 59 -37 68 3 16 53 41 84 42 6 1 23 -8 38 -20z"/>
<path d="M2226 2704 c-9 -8 -16 -25 -15 -37 0 -37 25 -176 32 -183 8 -8 141
-30 240 -39 82 -8 129 -1 152 22 19 19 19 85 0 150 -18 61 -26 65 -180 88
-132 20 -209 20 -229 -1z m227 -45 c113 -18 137 -35 151 -110 5 -27 2 -42 -11
-57 l-18 -21 -125 25 c-167 34 -174 37 -178 97 -2 27 2 55 9 63 14 17 74 18
172 3z"/>
<path d="M10854 1980 c-61 -31 -159 -138 -193 -210 -87 -184 -11 -415 164
-500 74 -35 179 -34 257 4 145 69 229 245 200 416 -31 183 -147 291 -326 306
-49 4 -69 1 -102 -16z m223 -61 c50 -24 111 -98 140 -169 13 -32 18 -71 18
-135 0 -78 -4 -97 -28 -146 -33 -69 -111 -144 -163 -158 -85 -24 -198 0 -265
56 -67 57 -108 193 -90 301 32 202 228 328 388 251z"/>
<path d="M10880 1872 c-41 -20 -95 -96 -111 -155 -24 -91 -9 -187 42 -258 26
-37 107 -79 154 -79 76 0 157 53 201 132 25 46 29 64 29 128 -1 91 -31 158
-96 214 -40 34 -47 36 -113 36 -48 0 -83 -6 -106 -18z m166 -38 c49 -24 92
-80 105 -139 23 -103 -36 -212 -138 -257 -73 -32 -136 -3 -187 86 -35 59 -41
105 -22 169 20 68 57 114 111 138 50 23 87 24 131 3z"/>
<path d="M4300 1913 c-113 -19 -227 -125 -271 -249 -29 -83 -37 -250 -15 -326
20 -69 105 -190 165 -232 42 -31 45 -31 165 -31 114 0 124 2 168 28 52 30 136
124 169 189 96 187 47 442 -104 545 -82 55 -204 89 -277 76z m223 -86 c56 -33
93 -76 124 -144 92 -200 19 -445 -162 -541 -67 -36 -188 -38 -250 -5 -199 107
-248 437 -90 611 72 81 152 114 261 108 56 -2 82 -9 117 -29z"/>
<path d="M4278 1770 c-58 -39 -134 -137 -149 -193 -20 -75 15 -196 80 -269 42
-48 121 -98 155 -98 42 0 151 56 182 93 49 58 68 114 68 202 0 59 -5 92 -20
126 -45 97 -122 156 -218 166 -45 4 -56 1 -98 -27z m189 -56 c23 -14 57 -46
75 -72 31 -44 33 -53 33 -127 0 -71 -3 -86 -31 -135 -38 -67 -93 -100 -166
-100 -156 0 -256 183 -184 335 58 123 164 161 273 99z"/>
<path d="M2510 2032 c0 -6 5 -14 10 -17 17 -10 11 -21 -17 -34 -39 -18 -16
-32 61 -38 73 -6 85 4 34 30 -32 15 -32 16 -8 17 37 1 58 16 43 31 -16 16
-123 25 -123 11z"/>
<path d="M2483 1893 c-30 -6 -29 -21 2 -29 30 -7 115 4 115 15 0 17 -62 25
-117 14z"/>
<path d="M2473 1813 c-7 -2 -13 -11 -13 -19 0 -10 15 -14 60 -14 33 0 60 2 60
5 0 2 -13 11 -30 20 -29 15 -54 18 -77 8z"/>
<path d="M2487 1723 c-13 -12 -7 -21 23 -33 40 -17 90 1 70 25 -12 15 -81 21
-93 8z"/>
<path d="M1530 2976 c0 -28 102 -326 111 -326 26 0 -10 145 -69 281 -21 49
-42 71 -42 45z"/>
<path d="M1669 2505 c-3 -21 2 -52 18 -113 16 -61 15 -64 -4 -100 -11 -20 -23
-57 -26 -82 -4 -25 -24 -91 -46 -147 -22 -56 -41 -112 -43 -125 -5 -38 15 -34
39 8 36 61 103 240 103 272 0 16 9 37 20 47 26 24 26 65 -1 141 -21 59 -57
119 -60 99z"/>
<path d="M1547 1760 c-19 -27 -57 -140 -57 -171 0 -28 17 -23 34 9 22 42 48
139 44 164 l-3 23 -18 -25z"/>
<path d="M370 1754 c-111 -20 -233 -60 -262 -87 -41 -38 -108 -276 -108 -381
0 -52 28 -113 70 -151 45 -42 57 -71 75 -171 8 -48 22 -98 30 -110 24 -37 78
-49 225 -49 112 0 147 4 206 22 81 26 124 60 124 99 0 15 18 107 40 205 22 98
40 190 40 204 0 26 43 118 99 213 l30 51 -49 55 c-28 29 -66 61 -86 71 -89 42
-289 55 -434 29z m389 -60 c67 -23 84 -51 25 -40 -112 20 -192 27 -319 25
-169 -1 -180 -1 -172 7 36 37 367 42 466 8z m-65 -74 c177 -29 19 -64 -344
-76 -188 -6 -213 0 -168 41 16 14 46 26 70 29 24 3 54 7 68 10 54 8 318 5 374
-4z m122 -105 c-25 -101 -100 -189 -229 -269 -93 -58 -159 -81 -270 -96 -115
-16 -133 -11 -147 40 -12 44 -32 289 -24 301 2 4 95 8 206 9 202 1 300 9 393
34 61 16 78 11 71 -19z m-717 -97 c12 -34 24 -225 14 -231 -12 -7 -25 2 -46
33 -29 42 -18 220 14 220 5 0 13 -10 18 -22z m647 -195 c-11 -78 -55 -251 -71
-282 -23 -46 -60 -68 -133 -81 -152 -27 -287 -2 -336 63 -22 30 -35 140 -18
151 5 3 53 10 106 16 113 12 189 40 331 122 55 31 106 58 114 58 10 0 12 -11
7 -47z"/>
<path d="M5420 1117 c-74 -32 -96 -37 -233 -51 -85 -10 -123 -18 -137 -31 -48
-44 -2 -71 93 -55 102 16 398 32 461 25 32 -3 66 -13 74 -22 25 -24 134 -13
202 22 45 23 62 27 107 22 73 -8 81 13 18 46 -60 30 -114 39 -290 47 -99 5
-193 11 -210 14 -20 4 -49 -2 -85 -17z"/>
<path d="M2180 1011 c-57 -9 -87 -25 -97 -53 -19 -56 3 -313 32 -369 23 -43
50 -53 163 -60 110 -6 122 -12 122 -60 0 -14 6 -34 14 -45 13 -17 29 -19 148
-22 73 -1 139 1 146 6 16 11 36 232 29 322 -4 54 -9 68 -32 87 -24 21 -36 23
-135 23 -125 0 -140 8 -140 70 0 90 -87 125 -250 101z m187 -53 c12 -9 12 -14
-1 -26 -21 -21 -185 -29 -210 -9 -19 14 -19 15 5 27 13 8 38 17 54 21 38 10
135 2 152 -13z m0 -135 c11 -24 17 -68 17 -121 1 -90 -11 -112 -60 -112 -28 0
-34 22 -34 127 l0 81 -32 7 c-63 11 -119 28 -114 33 4 4 71 11 189 21 12 1 23
-12 34 -36z m308 -53 c0 -21 -59 -39 -132 -39 -96 -1 -122 17 -60 44 45 20
192 16 192 -5z m-457 -32 c15 -15 16 -84 1 -93 -18 -12 -58 5 -75 31 -24 35
-6 74 34 74 15 0 33 -5 40 -12z m486 -132 c0 -78 -16 -131 -44 -146 -27 -14
-134 -25 -127 -13 4 6 24 13 45 17 22 3 46 13 53 22 8 9 17 54 20 100 11 138
54 154 53 20z m-127 -31 c52 -35 6 -74 -57 -48 -45 18 -75 47 -65 63 10 16 90
6 122 -15z"/>
<path d="M5180 873 c-65 -28 -131 -83 -128 -107 6 -45 31 -47 415 -36 473 13
493 16 379 59 -88 33 -203 52 -365 61 -115 7 -158 13 -171 25 -21 19 -84 18
-130 -2z"/>
<path d="M5444 633 c-12 -2 -32 -15 -45 -29 -23 -24 -23 -26 -6 -38 47 -35
327 -23 327 14 0 38 -178 72 -276 53z"/>
</g>
</svg>
